<svg xmlns="http://www.w3.org/2000/svg" width="40" height="40" viewBox="0 0 40 40" fill="none">
  <defs><radialGradient id="g" cx="50%" cy="50%" r="55%">
    <stop offset="0%" stop-color="#F2AE77"/><stop offset="55%" stop-color="#D97757"/><stop offset="100%" stop-color="#BE5A3A"/>
  </radialGradient></defs>
  <circle cx="20" cy="20" r="1.95" fill="url(#g)"/><circle cx="24.6" cy="20" r="1.7" fill="url(#g)" opacity="1"/><circle cx="29.2" cy="20" r="1.45" fill="url(#g)" opacity="0.85"/><circle cx="33.6" cy="20" r="1.15" fill="url(#g)" opacity="0.6"/><circle cx="23.98" cy="22.3" r="1.7" fill="url(#g)" opacity="1"/><circle cx="27.97" cy="24.6" r="1.45" fill="url(#g)" opacity="0.85"/><circle cx="31.78" cy="26.8" r="1.15" fill="url(#g)" opacity="0.6"/><circle cx="22.3" cy="23.98" r="1.7" fill="url(#g)" opacity="1"/><circle cx="24.6" cy="27.97" r="1.45" fill="url(#g)" opacity="0.85"/><circle cx="26.8" cy="31.78" r="1.15" fill="url(#g)" opacity="0.6"/><circle cx="20" cy="24.6" r="1.7" fill="url(#g)" opacity="1"/><circle cx="20" cy="29.2" r="1.45" fill="url(#g)" opacity="0.85"/><circle cx="20" cy="33.6" r="1.15" fill="url(#g)" opacity="0.6"/><circle cx="17.7" cy="23.98" r="1.7" fill="url(#g)" opacity="1"/><circle cx="15.4" cy="27.97" r="1.45" fill="url(#g)" opacity="0.85"/><circle cx="13.2" cy="31.78" r="1.15" fill="url(#g)" opacity="0.6"/><circle cx="16.02" cy="22.3" r="1.7" fill="url(#g)" opacity="1"/><circle cx="12.03" cy="24.6" r="1.45" fill="url(#g)" opacity="0.85"/><circle cx="8.22" cy="26.8" r="1.15" fill="url(#g)" opacity="0.6"/><circle cx="15.4" cy="20" r="1.7" fill="url(#g)" opacity="1"/><circle cx="10.8" cy="20" r="1.45" fill="url(#g)" opacity="0.85"/><circle cx="6.4" cy="20" r="1.15" fill="url(#g)" opacity="0.6"/><circle cx="16.02" cy="17.7" r="1.7" fill="url(#g)" opacity="1"/><circle cx="12.03" cy="15.4" r="1.45" fill="url(#g)" opacity="0.85"/><circle cx="8.22" cy="13.2" r="1.15" fill="url(#g)" opacity="0.6"/><circle cx="17.7" cy="16.02" r="1.7" fill="url(#g)" opacity="1"/><circle cx="15.4" cy="12.03" r="1.45" fill="url(#g)" opacity="0.85"/><circle cx="13.2" cy="8.22" r="1.15" fill="url(#g)" opacity="0.6"/><circle cx="20" cy="15.4" r="1.7" fill="url(#g)" opacity="1"/><circle cx="20" cy="10.8" r="1.45" fill="url(#g)" opacity="0.85"/><circle cx="20" cy="6.4" r="1.15" fill="url(#g)" opacity="0.6"/><circle cx="22.3" cy="16.02" r="1.7" fill="url(#g)" opacity="1"/><circle cx="24.6" cy="12.03" r="1.45" fill="url(#g)" opacity="0.85"/><circle cx="26.8" cy="8.22" r="1.15" fill="url(#g)" opacity="0.6"/><circle cx="23.98" cy="17.7" r="1.7" fill="url(#g)" opacity="1"/><circle cx="27.97" cy="15.4" r="1.45" fill="url(#g)" opacity="0.85"/><circle cx="31.78" cy="13.2" r="1.15" fill="url(#g)" opacity="0.6"/>
</svg>
